<?xml version="1.0" encoding="UTF-8"?>
<svg id="_レイヤー_1" xmlns="http://www.w3.org/2000/svg" version="1.1" viewBox="0 0 512 256">
  <!-- Generator: Adobe Illustrator 29.7.1, SVG Export Plug-In . SVG Version: 2.1.1 Build 8)  -->
  <defs>
    <style>
      .st0 {
        fill: #40220f;
      }

      .st1 {
        fill: #204720;
      }

      .st2 {
        fill: #49af40;
      }

      .st3 {
        fill: #d23c3d;
      }

      .st4, .st5, .st6, .st7 {
        fill: none;
      }

      .st8 {
        fill: #f7e0be;
      }

      .st5 {
        stroke: #40220f;
        stroke-width: 3px;
      }

      .st5, .st6, .st7 {
        stroke-linecap: round;
        stroke-linejoin: round;
      }

      .st6 {
        stroke-width: 4px;
      }

      .st6, .st7 {
        stroke: #dea584;
      }

      .st7 {
        stroke-width: 6px;
      }
    </style>
  </defs>
  <rect class="st4" x="128" width="256" height="256"/>
  <path class="st7" d="M332,180.19c8.64-5.58,23.66-8.21,33.86-2.17,8.45,5.01,9.59,22.3-7.21,22.3s-22.62,11.15-30.65,20.73"/>
  <g>
    <line class="st6" x1="315.08" y1="228.09" x2="320.22" y2="221.96"/>
    <line class="st6" x1="324.27" y1="235.8" x2="329.42" y2="229.67"/>
    <ellipse class="st3" cx="331.25" cy="218.15" rx="7.5" ry="12" transform="translate(-48.79 331.68) rotate(-50)"/>
    <rect class="st3" x="316.03" y="214.48" width="24" height="15" rx="3.87" ry="3.87" transform="translate(219.43 -158.92) rotate(40)"/>
  </g>
  <path class="st1" d="M160,76.62v102.76c0,2.86,1.52,5.5,3.99,6.95l87.96,51.31c1.25.73,2.65,1.1,4.05,1.1v-110.73l-94.94-55.38c-.69,1.2-1.06,2.57-1.06,4Z"/>
  <path class="st2" d="M256,128v110.73c1.4,0,2.8-.37,4.05-1.1l87.96-51.31c2.47-1.44,3.99-4.09,3.99-6.95v-102.76c0-1.43-.38-2.8-1.06-4l-94.94,55.38Z"/>
  <g>
    <polygon class="st1" points="268 121 268 233 284 223.67 284 111.67 268 121"/>
    <polygon class="st1" points="296 104.67 296 216.67 312 207.33 312 95.33 296 104.67"/>
    <polygon class="st1" points="324 88.33 324 200.33 340 191 340 79 324 88.33"/>
  </g>
  <path class="st8" d="M256,128l94.94-55.38c-.69-1.2-1.69-2.23-2.92-2.95l-43.98-25.65-43.98-25.65c-2.5-1.46-5.6-1.46-8.1,0l-43.98,25.65-43.98,25.65c-1.24.72-2.24,1.75-2.92,2.95l94.94,55.38Z"/>
  <path class="st3" d="M180.3,69.42l71.67-41.81c2.49-1.45,5.56-1.45,8.05,0l71.67,41.81c1.98,1.15,1.98,4.01,0,5.16l-71.67,41.81c-2.49,1.45-5.56,1.45-8.05,0l-71.67-41.81c-1.98-1.15-1.98-4.01,0-5.16Z"/>
  <g>
    <ellipse class="st0" cx="224" cy="68" rx="6" ry="9" transform="translate(-4.2 15.79) rotate(-4)"/>
    <ellipse class="st0" cx="288" cy="68" rx="9" ry="6" transform="translate(200.07 350.55) rotate(-86)"/>
    <path class="st0" d="M263.25,81.46c-3.88,0-6.5,3.66-7.25,5.66-.75-2-3.38-5.66-7.25-5.66-2.58,0-4.37,2.09-4.37,4.66,0,2.11,2,5.2,3.5,6.62,1.64,1.56,5.53,3.25,8.12,3.25s6.48-1.69,8.12-3.25c1.5-1.43,3.5-4.52,3.5-6.62,0-2.57-1.79-4.66-4.37-4.66Z"/>
  </g>
  <g>
    <path class="st8" d="M190.39,169.07v18.79c0,1.39-1.51,2.26-2.72,1.57l-16.28-9.4c-1.11-.64-1.79-1.82-1.79-3.11v-18.79c0-1.39,1.51-2.26,2.72-1.57l16.28,9.4c1.11.64,1.79,1.82,1.79,3.11Z"/>
    <line class="st5" x1="176" y1="174.81" x2="176" y2="166.81"/>
    <line class="st5" x1="184" y1="179.86" x2="184" y2="171.86"/>
  </g>
</svg>