<?xml version="1.0" encoding="UTF-8"?>
<svg id="_レイヤー_1" xmlns="http://www.w3.org/2000/svg" version="1.1" viewBox="0 0 256 256">
  <!-- Generator: Adobe Illustrator 29.7.1, SVG Export Plug-In . SVG Version: 2.1.1 Build 8)  -->
  <defs>
    <style>
      .st0 {
        fill: #40220f;
      }

      .st1 {
        fill: #204720;
      }

      .st2 {
        fill: #49af40;
      }

      .st3 {
        fill: #d23c3d;
      }

      .st4 {
        fill: #f7e0be;
      }
    </style>
  </defs>
  <polygon class="st1" points="32 72 32 184 128 240 128 128 32 72"/>
  <polygon class="st2" points="128 128 128 240 224 184 224 72 128 128"/>
  <g>
    <polygon class="st1" points="140 121 140 233 156 223.67 156 111.67 140 121"/>
    <polygon class="st1" points="168 104.67 168 216.67 184 207.33 184 95.33 168 104.67"/>
    <polygon class="st1" points="196 88.33 196 200.33 212 191 212 79 196 88.33"/>
  </g>
  <polygon class="st4" points="224 72 128 16 32 72 128 128 224 72"/>
  <polygon class="st3" points="47.88 72 128 25.26 208.12 72 128 118.74 47.88 72"/>
  <g>
    <ellipse class="st0" cx="96" cy="68" rx="6" ry="9" transform="translate(-4.51 6.86) rotate(-4)"/>
    <ellipse class="st0" cx="160" cy="68" rx="9" ry="6" transform="translate(81 222.87) rotate(-86)"/>
    <path class="st0" d="M135.25,81.46c-3.88,0-6.5,3.66-7.25,5.66-.75-2-3.38-5.66-7.25-5.66-2.58,0-4.37,2.09-4.37,4.66,0,2.11,2,5.2,3.5,6.62,1.64,1.56,5.53,3.25,8.12,3.25s6.48-1.69,8.12-3.25c1.5-1.43,3.5-4.52,3.5-6.62,0-2.57-1.79-4.66-4.37-4.66Z"/>
  </g>
</svg>